<?xml version="1.0" encoding="UTF-8"?>
<svg xmlns="http://www.w3.org/2000/svg" xmlns:xlink="http://www.w3.org/1999/xlink" width="375pt" height="374.999991pt" viewBox="0 0 375 374.999991" version="1.2">
<defs>
<filter id="alpha" filterUnits="objectBoundingBox" x="0%" y="0%" width="100%" height="100%">
  <feColorMatrix type="matrix" in="SourceGraphic" values="0 0 0 0 1 0 0 0 0 1 0 0 0 0 1 0 0 0 1 0"/>
</filter>
<mask id="mask0">
  <g filter="url(#alpha)">
<rect x="0" y="0" width="375" height="374.999991" style="fill:rgb(0%,0%,0%);fill-opacity:0.2275;stroke:none;"/>
  </g>
</mask>
<clipPath id="clip2">
  <path d="M 5.835938 5.753906 L 245.835938 5.753906 L 245.835938 285.503906 L 5.835938 285.503906 Z M 5.835938 5.753906 "/>
</clipPath>
<clipPath id="clip1">
  <rect x="0" y="0" width="251" height="291"/>
</clipPath>
<g id="surface5" clip-path="url(#clip1)">
<path style=" stroke:none;fill-rule:nonzero;fill:rgb(100%,100%,100%);fill-opacity:1;" d="M 222.34375 85.683594 L 231.390625 85.683594 C 231.988281 85.691406 232.578125 85.613281 233.15625 85.449219 C 233.734375 85.28125 234.273438 85.035156 234.777344 84.710938 C 235.28125 84.382812 235.726562 83.988281 236.113281 83.53125 C 236.5 83.070312 236.808594 82.566406 237.046875 82.015625 C 237.28125 81.460938 237.433594 80.886719 237.496094 80.289062 C 237.5625 79.695312 237.539062 79.101562 237.425781 78.511719 C 237.3125 77.921875 237.117188 77.359375 236.839844 76.828125 C 236.558594 76.296875 236.210938 75.820312 235.789062 75.390625 L 176.214844 15.996094 C 175.792969 15.5625 175.320312 15.199219 174.789062 14.90625 C 174.261719 14.613281 173.703125 14.40625 173.109375 14.28125 C 172.519531 14.15625 171.921875 14.121094 171.320312 14.175781 C 170.71875 14.230469 170.136719 14.371094 169.578125 14.601562 C 169.019531 14.828125 168.503906 15.132812 168.039062 15.515625 C 167.570312 15.898438 167.167969 16.34375 166.832031 16.84375 C 166.496094 17.347656 166.242188 17.886719 166.070312 18.46875 C 165.898438 19.046875 165.8125 19.636719 165.820312 20.242188 L 165.820312 29.285156 C 165.820312 31.132812 165.910156 32.976562 166.089844 34.816406 C 166.273438 36.65625 166.542969 38.484375 166.90625 40.296875 C 167.265625 42.113281 167.714844 43.902344 168.253906 45.671875 C 168.792969 47.441406 169.414062 49.179688 170.125 50.890625 C 170.832031 52.597656 171.621094 54.265625 172.496094 55.898438 C 173.367188 57.527344 174.320312 59.113281 175.347656 60.648438 C 176.378906 62.183594 177.480469 63.667969 178.65625 65.097656 C 179.828125 66.523438 181.070312 67.894531 182.378906 69.199219 C 183.691406 70.503906 185.058594 71.746094 186.492188 72.917969 C 187.921875 74.089844 189.410156 75.1875 190.949219 76.210938 C 192.488281 77.238281 194.074219 78.1875 195.707031 79.054688 C 197.339844 79.925781 199.011719 80.714844 200.71875 81.417969 C 202.429688 82.125 204.171875 82.742188 205.941406 83.277344 C 207.714844 83.8125 209.507812 84.257812 211.320312 84.617188 C 213.136719 84.972656 214.964844 85.242188 216.804688 85.421875 C 218.648438 85.597656 220.492188 85.6875 222.34375 85.683594 Z M 222.34375 85.683594 "/>
<path style=" stroke:none;fill-rule:nonzero;fill:rgb(100%,100%,100%);fill-opacity:1;" d="M 139.628906 146.277344 C 138.007812 144.316406 136.023438 142.835938 133.683594 141.832031 C 130.605469 140.667969 127.425781 140.152344 124.136719 140.285156 L 117.640625 140.285156 L 117.640625 183.195312 L 124.335938 183.195312 C 127.382812 183.277344 130.347656 182.828125 133.234375 181.847656 C 135.597656 180.972656 137.613281 179.589844 139.28125 177.699219 C 140.984375 175.683594 142.183594 173.402344 142.878906 170.855469 C 143.730469 167.734375 144.132812 164.554688 144.078125 161.316406 C 144.101562 158.488281 143.753906 155.707031 143.027344 152.972656 C 142.378906 150.496094 141.246094 148.265625 139.628906 146.277344 Z M 139.628906 146.277344 "/>
<g clip-path="url(#clip2)" clip-rule="nonzero">
<path style=" stroke:none;fill-rule:nonzero;fill:rgb(100%,100%,100%);fill-opacity:1;" d="M 222.34375 105.664062 C 221.09375 105.667969 219.839844 105.636719 218.589844 105.578125 C 217.339844 105.519531 216.09375 105.425781 214.847656 105.304688 C 213.601562 105.183594 212.359375 105.035156 211.121094 104.851562 C 209.882812 104.667969 208.648438 104.457031 207.421875 104.214844 C 206.195312 103.972656 204.972656 103.699219 203.757812 103.398438 C 202.542969 103.09375 201.335938 102.761719 200.140625 102.398438 C 198.941406 102.039062 197.753906 101.648438 196.574219 101.226562 C 195.394531 100.804688 194.226562 100.355469 193.070312 99.878906 C 191.914062 99.402344 190.769531 98.894531 189.636719 98.363281 C 188.503906 97.828125 187.386719 97.265625 186.28125 96.679688 C 185.175781 96.089844 184.089844 95.472656 183.015625 94.832031 C 181.941406 94.191406 180.882812 93.519531 179.839844 92.828125 C 178.800781 92.132812 177.777344 91.414062 176.769531 90.667969 C 175.765625 89.925781 174.777344 89.15625 173.808594 88.363281 C 172.839844 87.570312 171.894531 86.753906 170.964844 85.914062 C 170.039062 85.074219 169.128906 84.214844 168.246094 83.328125 C 167.359375 82.445312 166.496094 81.539062 165.65625 80.613281 C 164.8125 79.6875 163.996094 78.738281 163.199219 77.773438 C 162.40625 76.808594 161.636719 75.820312 160.890625 74.816406 C 160.144531 73.8125 159.421875 72.789062 158.726562 71.75 C 158.03125 70.710938 157.359375 69.652344 156.71875 68.582031 C 156.074219 67.507812 155.457031 66.421875 154.867188 65.316406 C 154.273438 64.214844 153.710938 63.097656 153.175781 61.964844 C 152.640625 60.835938 152.132812 59.691406 151.652344 58.535156 C 151.175781 57.378906 150.722656 56.214844 150.300781 55.035156 C 149.878906 53.859375 149.488281 52.671875 149.125 51.472656 C 148.761719 50.277344 148.425781 49.070312 148.121094 47.859375 C 147.816406 46.644531 147.542969 45.425781 147.296875 44.195312 C 147.054688 42.96875 146.839844 41.738281 146.65625 40.5 C 146.472656 39.261719 146.320312 38.019531 146.195312 36.777344 C 146.074219 35.53125 145.980469 34.285156 145.917969 33.035156 C 145.859375 31.785156 145.828125 30.535156 145.828125 29.285156 C 145.828125 28.515625 145.789062 27.75 145.714844 26.984375 C 145.640625 26.21875 145.527344 25.460938 145.378906 24.707031 C 145.226562 23.953125 145.042969 23.207031 144.820312 22.472656 C 144.597656 21.734375 144.339844 21.011719 144.046875 20.300781 C 143.75 19.59375 143.425781 18.898438 143.0625 18.21875 C 142.703125 17.542969 142.308594 16.882812 141.882812 16.242188 C 141.457031 15.601562 141 14.984375 140.511719 14.390625 C 140.023438 13.796875 139.511719 13.226562 138.96875 12.679688 C 138.425781 12.136719 137.859375 11.621094 137.265625 11.128906 C 136.671875 10.640625 136.054688 10.183594 135.417969 9.753906 C 134.78125 9.324219 134.121094 8.929688 133.445312 8.566406 C 132.769531 8.199219 132.074219 7.871094 131.367188 7.574219 C 130.65625 7.277344 129.933594 7.015625 129.199219 6.792969 C 128.464844 6.566406 127.71875 6.375 126.964844 6.222656 C 126.210938 6.070312 125.453125 5.957031 124.6875 5.875 C 123.921875 5.796875 123.15625 5.757812 122.386719 5.753906 L 62.414062 5.753906 C 60.5625 5.75 58.71875 5.839844 56.875 6.015625 C 55.035156 6.195312 53.207031 6.464844 51.390625 6.820312 C 49.578125 7.179688 47.785156 7.625 46.011719 8.160156 C 44.242188 8.695312 42.5 9.3125 40.789062 10.019531 C 39.082031 10.722656 37.410156 11.511719 35.777344 12.382812 C 34.144531 13.25 32.558594 14.199219 31.019531 15.226562 C 29.480469 16.25 27.992188 17.347656 26.5625 18.519531 C 25.128906 19.691406 23.761719 20.929688 22.449219 22.238281 C 21.140625 23.542969 19.898438 24.910156 18.726562 26.339844 C 17.550781 27.769531 16.449219 29.253906 15.417969 30.789062 C 14.390625 32.324219 13.441406 33.910156 12.566406 35.539062 C 11.695312 37.171875 10.902344 38.839844 10.195312 40.546875 C 9.484375 42.257812 8.863281 43.996094 8.324219 45.765625 C 7.785156 47.535156 7.335938 49.324219 6.976562 51.140625 C 6.613281 52.953125 6.34375 54.78125 6.160156 56.621094 C 5.980469 58.460938 5.890625 60.304688 5.890625 62.152344 L 5.890625 229.105469 C 5.890625 230.953125 5.980469 232.796875 6.160156 234.640625 C 6.34375 236.480469 6.613281 238.304688 6.976562 240.121094 C 7.335938 241.933594 7.785156 243.726562 8.324219 245.496094 C 8.863281 247.265625 9.484375 249.003906 10.195312 250.710938 C 10.902344 252.417969 11.695312 254.089844 12.566406 255.71875 C 13.441406 257.347656 14.390625 258.933594 15.417969 260.46875 C 16.449219 262.007812 17.550781 263.488281 18.726562 264.917969 C 19.898438 266.347656 21.140625 267.714844 22.449219 269.019531 C 23.761719 270.328125 25.128906 271.566406 26.5625 272.738281 C 27.992188 273.910156 29.480469 275.007812 31.019531 276.035156 C 32.558594 277.058594 34.144531 278.007812 35.777344 278.878906 C 37.410156 279.746094 39.082031 280.535156 40.789062 281.238281 C 42.5 281.945312 44.242188 282.566406 46.011719 283.097656 C 47.785156 283.632812 49.578125 284.078125 51.390625 284.4375 C 53.207031 284.796875 55.035156 285.0625 56.875 285.242188 C 58.71875 285.421875 60.5625 285.507812 62.414062 285.503906 L 189.507812 285.503906 C 191.355469 285.5 193.195312 285.40625 195.03125 285.222656 C 196.867188 285.039062 198.6875 284.765625 200.5 284.402344 C 202.308594 284.039062 204.09375 283.589844 205.859375 283.050781 C 207.625 282.511719 209.359375 281.890625 211.0625 281.179688 C 212.765625 280.472656 214.433594 279.683594 216.058594 278.8125 C 217.683594 277.9375 219.261719 276.988281 220.796875 275.960938 C 222.328125 274.9375 223.808594 273.835938 225.234375 272.664062 C 226.65625 271.492188 228.023438 270.253906 229.324219 268.945312 C 230.628906 267.640625 231.863281 266.273438 233.03125 264.847656 C 234.203125 263.417969 235.296875 261.9375 236.320312 260.402344 C 237.34375 258.867188 238.289062 257.289062 239.15625 255.660156 C 240.027344 254.03125 240.8125 252.367188 241.515625 250.660156 C 242.21875 248.957031 242.839844 247.222656 243.375 245.457031 C 243.90625 243.691406 244.351562 241.902344 244.710938 240.09375 C 245.070312 238.285156 245.339844 236.460938 245.515625 234.625 C 245.695312 232.789062 245.785156 230.949219 245.785156 229.105469 L 245.785156 129.195312 C 245.785156 128.425781 245.746094 127.660156 245.671875 126.894531 C 245.59375 126.128906 245.484375 125.371094 245.332031 124.617188 C 245.183594 123.863281 244.996094 123.117188 244.773438 122.382812 C 244.554688 121.644531 244.292969 120.921875 244 120.214844 C 243.707031 119.503906 243.378906 118.808594 243.019531 118.128906 C 242.65625 117.453125 242.261719 116.792969 241.835938 116.152344 C 241.410156 115.511719 240.953125 114.894531 240.46875 114.300781 C 239.980469 113.707031 239.464844 113.136719 238.925781 112.59375 C 238.382812 112.046875 237.8125 111.53125 237.222656 111.042969 C 236.628906 110.550781 236.011719 110.09375 235.375 109.664062 C 234.734375 109.238281 234.078125 108.839844 233.402344 108.476562 C 232.722656 108.113281 232.03125 107.78125 231.320312 107.484375 C 230.613281 107.1875 229.890625 106.925781 229.15625 106.703125 C 228.417969 106.476562 227.675781 106.285156 226.921875 106.132812 C 226.167969 105.980469 225.410156 105.867188 224.644531 105.789062 C 223.878906 105.710938 223.113281 105.667969 222.34375 105.664062 Z M 93.25 158.816406 C 92.148438 161.523438 90.484375 163.824219 88.253906 165.710938 C 85.972656 167.679688 83.390625 169.09375 80.507812 169.957031 C 76.953125 171.027344 73.320312 171.527344 69.609375 171.457031 L 64.511719 171.457031 L 64.511719 191.4375 C 64.511719 191.773438 64.414062 192.070312 64.214844 192.335938 C 63.910156 192.621094 63.5625 192.820312 63.164062 192.9375 C 62.53125 193.148438 61.878906 193.28125 61.214844 193.335938 C 60.164062 193.398438 59.117188 193.398438 58.066406 193.335938 C 57.035156 193.398438 56 193.398438 54.96875 193.335938 C 54.285156 193.285156 53.617188 193.152344 52.96875 192.9375 C 52.578125 192.832031 52.246094 192.632812 51.96875 192.335938 C 51.769531 192.070312 51.667969 191.773438 51.667969 191.4375 L 51.667969 134.789062 C 51.625 134.15625 51.707031 133.542969 51.914062 132.941406 C 52.125 132.34375 52.441406 131.8125 52.867188 131.34375 C 53.769531 130.546875 54.816406 130.179688 56.015625 130.242188 L 75.257812 130.242188 C 76.941406 130.382812 78.605469 130.632812 80.257812 130.992188 C 82.257812 131.394531 84.15625 132.078125 85.953125 133.039062 C 87.871094 134 89.535156 135.28125 90.953125 136.886719 C 92.375 138.46875 93.425781 140.265625 94.101562 142.28125 C 94.828125 144.539062 95.179688 146.855469 95.148438 149.226562 C 95.148438 152.546875 94.515625 155.746094 93.25 158.816406 Z M 155.074219 175.601562 C 153.726562 179.464844 151.558594 182.796875 148.578125 185.59375 C 145.5625 188.289062 142.113281 190.203125 138.230469 191.339844 C 133.503906 192.628906 128.6875 193.226562 123.789062 193.136719 L 108.792969 193.136719 C 107.765625 193.1875 106.867188 192.871094 106.09375 192.1875 C 105.6875 191.78125 105.390625 191.304688 105.199219 190.761719 C 105.003906 190.21875 104.9375 189.664062 104.996094 189.089844 L 104.996094 134.140625 C 104.957031 133.875 104.949219 133.609375 104.96875 133.34375 C 104.992188 133.078125 105.042969 132.820312 105.121094 132.566406 C 105.203125 132.3125 105.308594 132.070312 105.445312 131.839844 C 105.578125 131.609375 105.738281 131.394531 105.917969 131.203125 C 106.101562 131.007812 106.304688 130.835938 106.523438 130.6875 C 106.746094 130.539062 106.980469 130.414062 107.230469 130.320312 C 107.480469 130.222656 107.734375 130.15625 108 130.117188 C 108.261719 130.078125 108.527344 130.070312 108.792969 130.09375 L 124.988281 130.09375 C 129.871094 129.984375 134.652344 130.632812 139.332031 132.042969 C 143.113281 133.222656 146.441406 135.171875 149.324219 137.886719 C 152.105469 140.609375 154.136719 143.804688 155.421875 147.476562 C 156.90625 151.765625 157.605469 156.179688 157.523438 160.714844 C 157.585938 165.824219 156.769531 170.785156 155.074219 175.601562 Z M 203.203125 137.835938 C 203.152344 138.390625 203.019531 138.921875 202.800781 139.433594 C 202.648438 139.765625 202.449219 140.066406 202.203125 140.335938 C 201.96875 140.515625 201.699219 140.601562 201.402344 140.582031 L 180.8125 140.582031 L 180.8125 157.570312 L 200.203125 157.570312 C 200.480469 157.570312 200.730469 157.652344 200.953125 157.820312 C 201.234375 158.050781 201.453125 158.335938 201.601562 158.667969 C 201.796875 159.167969 201.910156 159.683594 201.953125 160.214844 C 202.015625 161.03125 202.015625 161.847656 201.953125 162.664062 C 202.011719 163.480469 202.011719 164.296875 201.953125 165.113281 C 201.910156 165.660156 201.792969 166.195312 201.601562 166.710938 C 201.453125 167.058594 201.234375 167.355469 200.953125 167.609375 C 200.703125 167.710938 200.453125 167.710938 200.203125 167.609375 L 180.8125 167.609375 L 180.8125 191.140625 C 180.8125 191.488281 180.710938 191.804688 180.511719 192.089844 C 180.214844 192.390625 179.867188 192.609375 179.460938 192.738281 C 178.824219 192.925781 178.175781 193.058594 177.511719 193.136719 C 176.464844 193.199219 175.414062 193.199219 174.363281 193.136719 C 173.332031 193.195312 172.300781 193.195312 171.265625 193.136719 C 170.605469 193.0625 169.953125 192.929688 169.316406 192.738281 C 168.914062 192.609375 168.5625 192.390625 168.269531 192.089844 C 168.027344 191.816406 167.910156 191.5 167.917969 191.140625 L 167.917969 134.289062 C 167.878906 134.027344 167.871094 133.761719 167.890625 133.496094 C 167.914062 133.230469 167.964844 132.96875 168.042969 132.714844 C 168.125 132.460938 168.230469 132.21875 168.367188 131.988281 C 168.5 131.757812 168.660156 131.546875 168.839844 131.351562 C 169.023438 131.15625 169.226562 130.984375 169.445312 130.835938 C 169.667969 130.6875 169.902344 130.566406 170.152344 130.46875 C 170.402344 130.375 170.65625 130.304688 170.921875 130.269531 C 171.183594 130.230469 171.449219 130.222656 171.714844 130.242188 L 201.453125 130.242188 C 201.71875 130.148438 201.984375 130.148438 202.253906 130.242188 C 202.511719 130.484375 202.710938 130.765625 202.851562 131.09375 C 203.0625 131.625 203.195312 132.171875 203.253906 132.742188 L 203.253906 135.238281 C 203.253906 135.238281 203.253906 137.285156 203.203125 137.9375 Z M 203.203125 137.835938 "/>
</g>
<path style=" stroke:none;fill-rule:nonzero;fill:rgb(100%,100%,100%);fill-opacity:1;" d="M 77.457031 141.683594 C 76.324219 141.105469 75.125 140.753906 73.859375 140.632812 C 72.566406 140.472656 71.265625 140.390625 69.960938 140.382812 L 64.511719 140.382812 L 64.511719 161.765625 L 70.261719 161.765625 C 71.976562 161.804688 73.640625 161.539062 75.257812 160.964844 C 76.582031 160.457031 77.714844 159.675781 78.65625 158.617188 C 79.59375 157.585938 80.261719 156.40625 80.65625 155.070312 C 81.128906 153.609375 81.363281 152.109375 81.355469 150.574219 C 81.425781 148.640625 81.023438 146.808594 80.15625 145.078125 C 79.578125 143.695312 78.675781 142.5625 77.457031 141.683594 Z M 77.457031 141.683594 "/>
</g>
</defs>
<g id="surface1">
<rect x="0" y="0" width="375" height="374.999991" style="fill:rgb(100%,100%,100%);fill-opacity:1;stroke:none;"/>
<rect x="0" y="0" width="375" height="374.999991" style="fill:rgb(100%,100%,100%);fill-opacity:1;stroke:none;"/>
<rect x="0" y="0" width="375" height="374.999991" style="fill:rgb(32.159424%,44.309998%,100%);fill-opacity:1;stroke:none;"/>
<path style=" stroke:none;fill-rule:nonzero;fill:rgb(100%,100%,100%);fill-opacity:1;" d="M 53.777344 42.785156 L 137.851562 137.507812 L 180.492188 95.773438 L 53.777344 12.636719 Z M 137.632812 148.042969 C 137.585938 148.042969 137.542969 148.042969 137.484375 148.042969 C 136.3125 148 135.203125 147.472656 134.425781 146.59375 L 46.257812 47.261719 C 45.570312 46.472656 45.175781 45.460938 45.175781 44.40625 L 45.175781 4.675781 C 45.175781 3.097656 46.050781 1.648438 47.441406 0.886719 C 48.832031 0.140625 50.515625 0.214844 51.832031 1.078125 L 189.667969 91.515625 C 190.75 92.230469 191.46875 93.386719 191.585938 94.691406 C 191.71875 95.976562 191.25 97.265625 190.3125 98.171875 L 140.644531 146.816406 C 139.839844 147.605469 138.757812 148.042969 137.632812 148.042969 "/>
<path style=" stroke:none;fill-rule:nonzero;fill:rgb(100%,100%,100%);fill-opacity:1;" d="M 194.132812 95.773438 L 236.773438 137.507812 L 320.847656 42.785156 L 320.847656 12.636719 Z M 236.996094 148.042969 C 235.867188 148.042969 234.785156 147.605469 233.980469 146.816406 L 184.3125 98.171875 C 183.375 97.265625 182.90625 95.976562 183.039062 94.691406 C 183.15625 93.386719 183.875 92.230469 184.957031 91.515625 L 322.792969 1.078125 C 324.109375 0.214844 325.808594 0.140625 327.183594 0.886719 C 328.574219 1.648438 329.449219 3.097656 329.449219 4.675781 L 329.449219 44.40625 C 329.449219 45.460938 329.054688 46.472656 328.367188 47.261719 L 240.199219 146.59375 C 239.421875 147.472656 238.3125 148 237.140625 148.042969 C 237.082031 148.042969 237.039062 148.042969 236.996094 148.042969 "/>
<path style=" stroke:none;fill-rule:nonzero;fill:rgb(100%,100%,100%);fill-opacity:1;" d="M 325.148438 8.964844 L 49.476562 8.964844 C 47.105469 8.964844 45.175781 7.046875 45.175781 4.675781 C 45.175781 2.304688 47.105469 0.375 49.476562 0.375 L 325.148438 0.375 C 327.519531 0.375 329.449219 2.304688 329.449219 4.675781 C 329.449219 7.046875 327.519531 8.964844 325.148438 8.964844 "/>
<path style=" stroke:none;fill-rule:nonzero;fill:rgb(100%,100%,100%);fill-opacity:1;" d="M 187.3125 167.828125 C 186.230469 167.828125 185.148438 167.417969 184.3125 166.601562 L 149.367188 132.386719 C 147.667969 130.71875 147.640625 128.011719 149.308594 126.296875 C 150.960938 124.617188 153.683594 124.585938 155.382812 126.238281 L 187.3125 157.511719 L 219.242188 126.238281 C 220.941406 124.585938 223.664062 124.617188 225.316406 126.296875 C 226.984375 128.011719 226.957031 130.71875 225.257812 132.386719 L 190.3125 166.601562 C 189.476562 167.417969 188.394531 167.828125 187.3125 167.828125 "/>
<path style=" stroke:none;fill-rule:nonzero;fill:rgb(100%,100%,100%);fill-opacity:1;" d="M 187.3125 375 C 186.171875 375 185.074219 374.546875 184.253906 373.726562 L 132.363281 321.382812 C 131.351562 320.371094 130.914062 318.921875 131.207031 317.519531 L 165.773438 145.71875 C 166.238281 143.390625 168.507812 141.898438 170.835938 142.351562 C 173.160156 142.820312 174.667969 145.089844 174.199219 147.414062 L 140.089844 316.960938 L 187.3125 364.59375 L 234.550781 316.960938 L 200.425781 147.414062 C 199.957031 145.089844 201.464844 142.820312 203.789062 142.351562 C 206.101562 141.898438 208.386719 143.390625 208.855469 145.71875 L 243.417969 317.519531 C 243.710938 318.921875 243.273438 320.371094 242.261719 321.382812 L 190.371094 373.726562 C 189.550781 374.546875 188.453125 375 187.3125 375 "/>
<use xlink:href="#surface5" transform="matrix(1,0,0,1,67,42)" mask="url(#mask0)"/>
</g>
</svg>
